<?xml version="1.0" standalone="no"?>
<!DOCTYPE svg PUBLIC "-//W3C//DTD SVG 20010904//EN"
 "http://www.w3.org/TR/2001/REC-SVG-20010904/DTD/svg10.dtd">
<svg version="1.0" xmlns="http://www.w3.org/2000/svg"
 width="256.000000pt" height="256.000000pt" viewBox="0 0 256.000000 256.000000"
 preserveAspectRatio="xMidYMid meet">
<metadata>
Created by potrace 1.16, written by Peter Selinger 2001-2019
</metadata>
<g transform="translate(0.000000,256.000000) scale(0.100000,-0.100000)"
fill="#000000" stroke="none">
<path d="M1055 2373 c-136 -19 -325 -95 -442 -179 -191 -136 -345 -361 -403
-589 -22 -87 -42 -260 -33 -293 l5 -22 514 0 514 0 0 523 c0 287 -3 532 -6
545 -6 20 -12 22 -63 21 -31 -1 -69 -4 -86 -6z"/>
<path d="M1330 1835 l0 -545 530 0 530 0 0 545 0 545 -530 0 -530 0 0 -545z"/>
<path d="M570 883 c0 -175 3 -328 6 -340 l6 -23 314 0 314 0 0 318 c0 174 -3
327 -6 340 l-6 22 -314 0 -314 0 0 -317z"/>
<path d="M1623 1193 l-293 -3 0 -535 0 -535 38 0 c67 0 225 28 305 54 402 132
691 502 714 912 l6 101 -39 6 c-22 4 -129 6 -239 5 -110 -2 -332 -4 -492 -5z"/>
</g>
</svg>
